<?xml version="1.0" encoding="utf-8"?>
<!-- Generator: Adobe Illustrator 27.8.0, SVG Export Plug-In . SVG Version: 6.00 Build 0)  -->
<svg version="1.1" id="Layer_1" xmlns="http://www.w3.org/2000/svg" xmlns:xlink="http://www.w3.org/1999/xlink" x="0px" y="0px"
	 viewBox="0 0 500 500" style="enable-background:new 0 0 500 500;" xml:space="preserve">
<style type="text/css">
	.st0{fill:#020202;}
	.st1{fill:#010101;}
	.st2{fill:#080808;}
	.st3{fill:#161616;}
	.st4{fill:#090909;}
	.st5{fill:#030303;}
</style>
<g>
	<path class="st0" d="M400.39,215.61c-1.86,13.31-3.67,26.25-5.56,39.7c-11.24-1.95-22.26-4.35-33.64-3.86
		c-11.41,0.49-22.36,3.16-33.26,6.27c-0.67-3.21-0.92-6.27-1.97-9.03c-3.19-8.32-11.8-13.34-20.51-12.33
		c-8.36,0.97-15.69,7.4-16.69,16.16c-0.94,8.25-0.57,16.65-0.71,24.98c-0.05,2.79-0.19,5.17-2.45,7.53
		c-23.26,24.29-33.92,53.24-31.55,86.88c0.05,0.71-0.16,1.43-0.3,2.57c-56.93,0-113.74,0-171.56,0
		c-7.36-52.68-14.75-105.54-22.2-158.87C173.48,215.61,286.68,215.61,400.39,215.61z M210.4,295.59c0,12.64-0.1,25.27,0.03,37.91
		c0.12,12.2,8.06,20.18,19.78,20.15c11.81-0.02,19.55-7.8,19.61-20.19c0.12-25.53,0.1-51.05,0.01-76.58
		c-0.05-12.34-7.83-20.5-19.3-20.62c-11.84-0.12-20,8.17-20.1,20.65C210.32,269.81,210.4,282.7,210.4,295.59z M172.36,295.3
		c0-12.64,0.05-25.28-0.01-37.92c-0.06-12.68-7.9-21.05-19.63-21.1c-11.8-0.05-19.89,8.27-19.93,20.88
		c-0.09,25.28-0.1,50.56,0,75.85c0.05,12.68,8.06,20.77,20.08,20.65c11.72-0.12,19.4-8.1,19.48-20.42
		C172.42,320.58,172.35,307.94,172.36,295.3z"/>
	<path class="st0" d="M364.77,458.7c-52.84,0.03-95.88-43.03-95.87-95.91c0.01-52.97,42.93-96.09,95.68-96.12
		c53.26-0.03,96.4,43.11,96.33,96.35C460.84,415.79,417.75,458.68,364.77,458.7z M355.8,380.47c-10.56-10.73-20.28-20.6-29.98-30.49
		c-3.64-3.72-7.7-6.54-12.35-2.07c-4.89,4.71-2.32,8.99,1.68,12.95c10.93,10.84,21.76,21.8,32.69,32.64
		c6.31,6.26,9.36,6.22,15.77-0.16c13.6-13.53,27.14-27.11,40.7-40.67c3.75-3.75,7.49-7.5,11.23-11.25c3.76-3.77,4.6-8.01,0.76-11.95
		c-3.77-3.87-7.73-2.55-11.22,0.93c-1.78,1.78-3.57,3.57-5.34,5.37C385.26,350.5,370.78,365.23,355.8,380.47z"/>
	<path class="st1" d="M97.16,163.43c-0.94,5.96-2.06,11.67,0.07,17.29c5.78,15.19,25.75,18.29,36.49,5.42
		c4.83-5.8,8.89-12.26,13.05-18.58c2.12-3.22,4.45-4.71,8.57-4.7c49.86,0.16,99.72,0.16,149.57,0c4.06-0.01,6.53,1.21,8.64,4.54
		c3.64,5.76,7.5,11.39,11.49,16.92c6.78,9.4,17.77,12.53,27.41,7.99c9.61-4.52,13.92-14.61,11.15-26.09
		c-0.18-0.73-0.2-1.49-0.36-2.75c19.2,0,38.29,0,57.89,0c0,11.71,0,23.7,0,36.12c-127.08,0-254.29,0-382.04,0
		c0-11.74,0-23.71,0-36.15C58.32,163.43,77.63,163.43,97.16,163.43z"/>
	<path class="st2" d="M349.72,172.19c-0.47,2.97-1.3,5.13-3.58,6.11c-2.46,1.05-5.09,0.99-7.09-0.97c-1.6-1.57-2.85-3.5-4.13-5.36
		c-26.76-38.9-53.51-77.8-80.25-116.71c-1.14-1.66-2.5-3.26-3.19-5.1c-1.02-2.74-0.88-5.67,1.81-7.49c2.77-1.89,5.76-1.9,8.27,0.63
		c1.23,1.24,2.22,2.75,3.22,4.2c27.16,39.53,54.32,79.07,81.45,118.63C347.62,168.16,348.71,170.43,349.72,172.19z"/>
	<path class="st2" d="M209.67,47.4c-0.5,2.53-1.79,4.65-3.24,6.76c-27.47,39.89-54.93,79.79-82.3,119.75
		c-2.76,4.03-6.11,6.85-10.55,3.78c-4.16-2.89-2.58-7.02-0.08-10.66c27.58-40.12,55.13-80.25,82.69-120.38
		c2.21-3.22,4.44-6.28,9.14-4.95C208.29,42.52,208.86,45.02,209.67,47.4z"/>
	<path class="st3" d="M303.16,269.2c0-4.37-0.12-8.36,0.04-12.34c0.13-3,1.36-5.51,4.88-5.35c3.1,0.14,3.76,2.41,4.13,5.18
		C313.09,263.33,311.01,267.74,303.16,269.2z"/>
	<path class="st4" d="M234.67,295.38c0,12.13-0.01,24.26,0.01,36.4c0,3.12,0.23,6.43-4.16,6.62c-4.75,0.21-4.96-3.1-4.95-6.67
		c0.04-24.52,0.03-49.03,0.01-73.55c0-3.54,0.24-6.91,5-6.66c4.4,0.23,4.09,3.66,4.09,6.71
		C234.68,270.61,234.67,282.99,234.67,295.38z"/>
	<path class="st5" d="M147.94,294.81c0-11.88-0.01-23.77,0.01-35.65c0-3.53-0.56-7.68,4.8-7.6c4.83,0.07,4.42,3.86,4.41,7.18
		c0,24.27-0.02,48.55,0.02,72.82c0.01,3.48,0.07,6.96-4.76,6.81c-4.81-0.15-4.49-3.77-4.49-7.14
		C147.96,319.09,147.94,306.95,147.94,294.81z"/>
</g>
</svg>
